Coordinates
version=1
nRows=22
nColumns=24
inDegrees=yes

Units are S.I. units (second, meters, Newtons, ...)
Angles are in degrees.

endheader
time	pelvis_tilt	pelvis_list	pelvis_rotation	pelvis_tx	pelvis_ty	pelvis_tz	hip_flexion_r	hip_adduction_r	hip_rotation_r	knee_angle_r	ankle_angle_r	subtalar_angle_r	mtp_angle_r	hip_flexion_l	hip_adduction_l	hip_rotation_l	knee_angle_l	ankle_angle_l	subtalar_angle_l	mtp_angle_l	lumbar_extension	lumbar_bending	lumbar_rotation
      3.98000000	     -3.58810828	      3.26840195	      7.13492883	     -0.40407073	     -0.03350198	     -0.15539454	     34.32019656	     -1.72010092	     -4.82633059	    -16.93560300	      3.00519030	      7.77474094	     11.11498198	    -10.59463710	      6.92299047	     -7.65559635	    -23.77985372	     16.64865830	     23.16402871	    -15.05815850	      2.61620989	     -6.14556720	     -9.16832382
      3.98500000	     -3.60133045	      3.06192059	      7.14650824	     -0.39641466	     -0.03377776	     -0.15518445	     34.15809597	     -1.32210334	     -4.40168392	    -17.40888057	      2.04886156	      6.99860118	     12.00337548	    -10.66904806	      6.47783057	     -7.80822737	    -24.25889278	     14.54932269	     23.08352449	     -9.75282156	      2.75390206	     -5.86570579	     -9.13520266
      3.99000000	     -3.73674940	      2.88353047	      7.19152431	     -0.38888080	     -0.03414579	     -0.15484211	     34.21524496	     -0.97626346	     -4.06368318	    -18.12758757	      1.49831421	      6.64304408	     11.75563487	    -10.44936452	      5.99683720	     -8.15133870	    -25.09883579	     12.84918763	     23.36541372	     -6.08060683	      2.98485805	     -5.66171099	     -9.11563096
      3.99500000	     -3.85531955	      2.62027816	      7.16976610	     -0.38120309	     -0.03441203	     -0.15452216	     34.21811820	     -0.51704182	     -3.66095457	    -18.70267965	      0.60760122	      6.13541607	     12.20413519	    -10.20561384	      5.42579787	     -8.56130029	    -25.99409049	     11.08885297	     23.61416778	     -2.67266078	      3.23656296	     -5.33550857	     -9.01251239
      4.00000000	     -3.96361142	      2.34770026	      7.15903096	     -0.37359710	     -0.03457390	     -0.15412287	     34.23457617	     -0.03582550	     -3.23631101	    -19.35318195	     -0.16562617	      5.68548044	     11.98905546	     -9.89634451	      4.80498074	     -8.99896437	    -26.94598094	      9.06196398	     23.86500459	      1.25816477	      3.45224644	     -5.00903869	     -8.91123787
      4.00500000	     -4.08865143	      2.05829185	      7.13014323	     -0.36600533	     -0.03469163	     -0.15367783	     34.27973194	      0.47821373	     -2.75897018	    -19.99770274	     -1.01182154	      5.20166712	     11.83501728	     -9.49911386	      4.14250646	     -9.47173922	    -27.97921799	      6.89556445	     24.12313096	      5.16599299	      3.68119615	     -4.66595941	     -8.78406883
      4.01000000	     -4.22252544	      1.75174065	      7.08845944	     -0.35842943	     -0.03476291	     -0.15317853	     34.35164905	      1.02829114	     -2.24916122	    -20.68574820	     -1.80228630	      4.75687345	     11.39744191	     -9.02139285	      3.43911206	     -9.95365111	    -29.08799047	      4.55894375	     24.33254117	      9.04115745	      3.91291327	     -4.30855998	     -8.61925985
      4.01500000	     -4.36693907	      1.41714060	      7.03365874	     -0.35081438	     -0.03482142	     -0.15268015	     34.42637354	      1.62536285	     -1.63533348	    -21.37739168	     -2.54890598	      4.33285277	     10.88941070	     -8.47331386	      2.70188901	    -10.39156656	    -30.26435598	      2.08756837	     24.41216552	     12.68120627	      4.16401791	     -3.91711758	     -8.46852296
      4.02000000	     -4.51553551	      1.08264065	      6.97981729	     -0.34321809	     -0.03487066	     -0.15217220	     34.51296856	      2.22722566	     -1.03497295	    -22.10055977	     -3.22518479	      3.94467927	     10.30922629	     -7.85424476	      1.95510786	    -10.78043987	    -31.51285595	     -0.54067702	     24.37105115	     16.03806122	      4.41252638	     -3.53009398	     -8.31236061
      4.02500000	     -4.64945934	      0.75279448	      6.86909406	     -0.33560392	     -0.03494434	     -0.15161449	     34.58238002	      2.86746422	     -0.35355653	    -22.83930669	     -3.82406560	      3.57330977	      9.72918780	     -7.20349813	      1.21553228	    -11.17233338	    -32.82613095	     -3.27129953	     24.18419891	     18.84650980	      4.64701872	     -3.13813252	     -8.08464545
      4.03000000	     -4.82975414	      0.38555203	      6.80089221	     -0.32799321	     -0.03509288	     -0.15110751	     34.68689582	      3.50946382	      0.23792159	    -23.56234724	     -4.34577378	      3.23349946	      9.21209983	     -6.41422044	      0.43536830	    -11.45620861	    -34.26075848	     -6.04774235	     23.86075343	     21.09202815	      4.93946663	     -2.72024226	     -7.92366108
      4.03500000	     -4.98720785	      0.05405988	      6.77703697	     -0.32061918	     -0.03525243	     -0.15062170	     34.76046673	      4.10468280	      0.85165419	    -24.26629856	     -4.88880354	      2.73601126	      8.76333253	     -5.53377464	     -0.29098572	    -11.57989818	    -35.87559441	     -8.75058402	     23.30379482	     22.04678894	      5.14685785	     -2.36038123	     -7.88939937
      4.04000000	     -5.11107243	     -0.34931521	      6.67062346	     -0.31296591	     -0.03539678	     -0.15016544	     34.74107745	      4.78915021	      1.34968581	    -24.89035748	     -5.22072891	      2.40337927	      8.34576510	     -4.72541526	     -1.06751082	    -11.73341756	    -37.33529675	    -11.80819216	     22.42680265	     23.51705091	      5.39506462	     -1.87933571	     -7.65122002
      4.04500000	     -5.07486262	     -0.77058699	      6.62515176	     -0.30553747	     -0.03543979	     -0.14983470	     34.52663161	      5.44377300	      1.69735337	    -25.44673930	     -5.47730442	      2.11573410	      8.19299957	     -3.96460406	     -1.86432078	    -11.79720300	    -39.02670437	    -14.56493250	     21.33643116	     23.07930970	      5.42913116	     -1.37533153	     -7.55415708
      4.05000000	     -5.18567279	     -1.12778227	      6.49630784	     -0.29817460	     -0.03565200	     -0.14927775	     34.45668225	      6.09951904	      2.19507285	    -25.97526395	     -5.80541638	      1.52015946	      7.94085274	     -3.02088754	     -2.55037013	    -11.82983343	    -40.68086273	    -17.49342993	     20.01272668	     22.56857643	      5.60749408	     -0.96473966	     -7.37036927
      4.05500000	     -5.23274535	     -1.56606868	      6.35442130	     -0.29086764	     -0.03585828	     -0.14873749	     34.29125305	      6.81665838	      2.54366743	    -26.42960956	     -6.04892091	      1.03476486	      7.79657633	     -2.08791295	     -3.33010504	    -11.91066182	    -42.38760122	    -20.34335465	     18.41626340	     21.66133954	      5.71718963	     -0.45431860	     -7.17380673
      4.06000000	     -5.41744806	     -1.98807267	      6.13657285	     -0.28358894	     -0.03629889	     -0.14808889	     34.25878645	      7.53947095	      2.92808240	    -26.83328211	     -6.29502524	      0.43919908	      7.99987493	     -0.94041230	     -4.07584301	    -12.06798437	    -44.27819802	    -22.74217979	     16.72853665	     19.01882646	      5.98780673	      0.02417373	     -6.87917882
      4.06500000	     -5.43369722	     -2.44665774	      5.94867328	     -0.27640673	     -0.03651148	     -0.14750379	     33.98654312	      8.27684300	      3.18024480	    -27.12459134	     -6.46212099	     -0.12359851	      8.23834490	      0.06663796	     -4.85925642	    -12.17295296	    -46.17562550	    -24.92588706	     14.83240192	     15.62659699	      6.05715159	      0.55584737	     -6.64330979
      4.07000000	     -5.48136465	     -2.91344124	      5.73368251	     -0.26931298	     -0.03676557	     -0.14685355	     33.72480906	      9.02827825	      3.42030026	    -27.36655372	     -6.56418938	     -0.66745312	      8.51928721	      1.15001255	     -5.64828635	    -12.29989380	    -48.10744386	    -26.84851633	     12.79190458	     11.74738924	      6.15375536	      1.09003117	     -6.37460061
      4.07500000	     -5.50348953	     -3.39161685	      5.51344916	     -0.26227760	     -0.03696036	     -0.14618435	     33.39436786	      9.79041489	      3.63508618	    -27.53238485	     -6.61641733	     -1.20936261	      8.83695723	      2.23738090	     -6.44914167	    -12.42826035	    -50.05932284	    -28.38376606	     10.68229939	      7.24591435	      6.21863907	      1.63667939	     -6.09632560
      4.08000000	     -5.52880782	     -3.87450356	      5.29038789	     -0.25533033	     -0.03711847	     -0.14548663	     33.03647677	     10.55370654	      3.82438179	    -27.63942688	     -6.61422225	     -1.73428169	      9.14883928	      3.36656886	     -7.25469401	    -12.55135049	    -52.03011832	    -29.50328783	      8.55670569	      2.27349772	      6.27853402	      2.17893749	     -5.82238721
      4.08500000	     -5.55249834	     -4.34703053	      5.06215197	     -0.24844466	     -0.03722371	     -0.14477839	     32.64362043	     11.30685382	      4.01684042	    -27.69676376	     -6.55102489	     -2.23719964	      9.41884393	      4.51361661	     -8.03892838	    -12.66089238	    -53.98796286	    -30.16120811	      6.45812664	     -3.01411656	      6.32927072	      2.70558260	     -5.54694493
